<svg width="110" height="49" viewBox="0 0 110 49" fill="none" xmlns="http://www.w3.org/2000/svg">
<path d="M4.35 46.4C4.25 46.4 4.16667 46.35 4.1 46.25C3.33333 45.3833 2.78333 44.35 2.45 43.15C2.15 41.9833 2 40.85 2 39.75C2 38.05 2.3 36.4 2.9 34.8C3.5 33.1667 4.33333 31.7167 5.4 30.45C7.36667 28.15 9.61667 26.05 12.15 24.15C14.7167 22.25 17.4167 20.4667 20.25 18.8C23.0833 17.1333 25.9167 15.5167 28.75 13.95C31.5833 12.3833 34.2667 10.8 36.8 9.2C37.5 8.73333 38.2 8.26667 38.9 7.8C39.6 7.3 40.2333 6.75 40.8 6.15C38.6667 5.48333 36.5333 4.83333 34.4 4.2C32.2667 3.53333 30.1167 2.98333 27.95 2.55C25.7833 2.08333 23.5667 1.85 21.3 1.85C19.3 1.85 17.2333 2.11666 15.1 2.65C12.9667 3.15 10.9833 3.93333 9.15 5C7.35 6.06667 5.88333 7.45 4.75 9.15C3.65 10.85 3.1 12.8833 3.1 15.25C3.1 15.85 3.13333 16.55 3.2 17.35C3.3 18.1167 3.46667 18.8667 3.7 19.6C3.96667 20.3333 4.35 20.9333 4.85 21.4C5.35 21.8667 6.01667 22.1 6.85 22.1C6.91667 22.1 6.98333 22.1167 7.05 22.15C7.15 22.15 7.2 22.2 7.2 22.3C7.2 22.4 7.1 22.4667 6.9 22.5C6.73333 22.5333 6.61667 22.55 6.55 22.55C5.85 22.55 5.13333 22.3833 4.4 22.05C3.16667 21.5167 2.2 20.75 1.5 19.75C0.833333 18.75 0.5 17.5833 0.5 16.25C0.5 13.9167 1.03333 11.8667 2.1 10.1C3.16667 8.3 4.58333 6.76666 6.35 5.5C8.11667 4.23333 10.0667 3.21667 12.2 2.45C14.3667 1.65 16.55 1.06667 18.75 0.699998C20.95 0.333332 23 0.149999 24.9 0.149999C27.8 0.149999 30.7 0.483332 33.6 1.15C36.5333 1.81667 39.3833 2.56667 42.15 3.4C43.2167 3.7 44.45 4.03333 45.85 4.4C47.25 4.76667 48.5 4.95 49.6 4.95C50.0667 4.95 50.4167 4.88333 50.65 4.75C50.9167 4.61667 51.1 4.55 51.2 4.55C51.3 4.55 51.35 4.6 51.35 4.7C51.35 4.83333 51.3 4.95 51.2 5.05C51.1333 5.11667 51.05 5.18333 50.95 5.25C50.1167 5.88333 49.4 6.38333 48.8 6.75C48.2 7.08333 47.3167 7.25 46.15 7.25C45.95 7.25 45.75 7.25 45.55 7.25C45.3833 7.25 45.2 7.23333 45 7.2C44.2667 12.0667 42.7667 16.6333 40.5 20.9C38.2333 25.1333 35.3667 29.0167 31.9 32.55C32.2667 32.35 32.7833 32.0667 33.45 31.7C34.1167 31.3 34.8333 30.9 35.6 30.5C36.4 30.1 37.1333 29.7667 37.8 29.5C38.5 29.2333 39.0333 29.1 39.4 29.1C39.5 29.1 39.6 29.1167 39.7 29.15C39.8333 29.1833 39.9 29.25 39.9 29.35C39.9 29.4167 39.85 29.4667 39.75 29.5C39.65 29.5333 39.5667 29.5667 39.5 29.6C38.4 29.8333 37.3833 30.2833 36.45 30.95C35.5167 31.6167 34.6667 32.3667 33.9 33.2C33.7 33.4333 33.4 33.7833 33 34.25C32.6 34.6833 32.1667 35.1333 31.7 35.6C31.2333 36.1 30.7667 36.5167 30.3 36.85C29.8667 37.1833 29.5 37.35 29.2 37.35C28.8 37.35 28.45 37.1667 28.15 36.8C27.85 36.4333 27.7 36.0667 27.7 35.7C27.7 35.3 27.8333 35.05 28.1 34.95C28.4 34.8167 28.6667 34.6333 28.9 34.4C29.3333 34 29.8333 33.3833 30.4 32.55C30.9667 31.7167 31.4167 31.0333 31.75 30.5C32.75 28.9667 33.7667 27.35 34.8 25.65C35.8667 23.9167 36.85 22.1333 37.75 20.3C38.65 18.4667 39.3833 16.6167 39.95 14.75C40.5167 12.8833 40.8 11.05 40.8 9.25V9C40.8 8.8 40.7 8.7 40.5 8.7C40.2667 8.7 39.9167 8.83333 39.45 9.1C38.9833 9.33333 38.5333 9.6 38.1 9.9C37.6667 10.1667 37.3333 10.3667 37.1 10.5C34.6333 12.0333 32.1167 13.55 29.55 15.05C27.0167 16.5167 24.5 18.0333 22 19.6C19.5 21.1333 17.1 22.8167 14.8 24.65C12.5333 26.45 10.45 28.4833 8.55 30.75C7.71667 31.75 6.91667 32.9 6.15 34.2C5.38333 35.4667 4.76667 36.8 4.3 38.2C3.83333 39.6333 3.6 41.0167 3.6 42.35C3.6 42.9833 3.66667 43.5667 3.8 44.1C3.96667 44.6667 4.25 45.2167 4.65 45.75C4.71667 45.8167 4.75 45.9 4.75 46C4.75 46.2667 4.61667 46.4 4.35 46.4ZM31.9 24.3C31.8333 24.3 31.8 24.2667 31.8 24.2C31.8 24.0333 31.9167 23.9 32.15 23.8C32.3833 23.7 32.5 23.4833 32.5 23.15C32.5 22.6833 32.2333 22.4 31.7 22.3C31.1667 22.1667 30.7333 22.1 30.4 22.1C30.0333 22.1 29.6667 22.1167 29.3 22.15C28.9333 22.1833 28.5667 22.2333 28.2 22.3C26.4667 22.5 24.7333 22.7 23 22.9C21.2667 23.1 19.5167 23.2 17.75 23.2C17.6833 23.2 17.5833 23.1833 17.45 23.15C17.3167 23.1167 17.25 23.05 17.25 22.95C17.25 22.85 17.3167 22.7833 17.45 22.75C17.5833 22.7167 17.6833 22.7 17.75 22.7C18.8167 22.7 19.9 22.5167 21 22.15C22.1333 21.7833 23.2667 21.35 24.4 20.85C25.5667 20.35 26.75 19.9167 27.95 19.55C29.15 19.1833 30.4 19 31.7 19C32.3667 19 33.0333 19.1167 33.7 19.35C34.4 19.5833 34.75 20.1333 34.75 21C34.75 21.7 34.4667 22.3333 33.9 22.9C33.3667 23.4667 32.8167 23.9 32.25 24.2C32.1167 24.2667 32 24.3 31.9 24.3ZM43.2535 35.35C43.2535 35.35 43.2368 35.35 43.2035 35.35C43.1702 35.35 43.1535 35.3333 43.1535 35.3C43.8202 34.4333 44.4202 33.5333 44.9535 32.6C45.5202 31.6667 46.0702 30.75 46.6035 29.85C47.3702 28.5833 48.1202 27.3167 48.8535 26.05C49.5868 24.75 50.2535 23.4333 50.8535 22.1C51.0868 21.6667 51.2035 21.1667 51.2035 20.6C51.2035 20.4 51.1702 20.2 51.1035 20C51.0702 19.8 51.0535 19.6167 51.0535 19.45C51.0535 19.25 51.1368 19.0667 51.3035 18.9C51.5035 18.7333 51.6702 18.6 51.8035 18.5C51.8702 18.4667 52.0868 18.3667 52.4535 18.2C52.8202 18.0333 53.2368 17.85 53.7035 17.65C54.1702 17.4167 54.5868 17.2333 54.9535 17.1C55.3202 16.9333 55.5202 16.85 55.5535 16.85C55.6202 16.85 55.6702 16.9333 55.7035 17.1C55.7702 17.2333 55.8035 17.3167 55.8035 17.35C55.8035 17.6833 55.6702 18.15 55.4035 18.75C55.1368 19.35 54.8035 19.9833 54.4035 20.65C54.0035 21.3167 53.6202 21.95 53.2535 22.55C52.8868 23.1167 52.6035 23.5667 52.4035 23.9C52.8702 23.3 53.4702 22.6167 54.2035 21.85C54.9368 21.05 55.7035 20.3 56.5035 19.6C57.3368 18.9 58.0868 18.4167 58.7535 18.15C59.4535 17.85 60.1535 17.6 60.8535 17.4C61.1535 17.3 61.5702 17.2 62.1035 17.1C62.6368 17 63.1368 16.8667 63.6035 16.7C64.1035 16.5333 64.4535 16.35 64.6535 16.15L64.7035 16.5C64.7368 17.7333 64.4535 18.6333 63.8535 19.2C63.2535 19.7667 62.4869 20.15 61.5535 20.35C60.6535 20.5167 59.7202 20.6833 58.7535 20.85C57.0535 21.0833 55.5868 21.7 54.3535 22.7C53.1535 23.7 52.1202 24.9 51.2535 26.3C50.3868 27.6667 49.6368 29.0833 49.0035 30.55C48.7702 31.05 48.5535 31.5667 48.3535 32.1C48.1868 32.6 47.9868 33.1 47.7535 33.6C47.6535 33.8333 47.2868 34.1 46.6535 34.4C46.0202 34.6667 45.3535 34.8833 44.6535 35.05C43.9868 35.25 43.5202 35.35 43.2535 35.35ZM57.5996 48.65C56.8329 48.65 56.0329 48.5167 55.1996 48.25C54.3663 48.0167 53.6663 47.6167 53.0996 47.05C52.5329 46.4833 52.2496 45.75 52.2496 44.85C52.2496 44.5833 52.3329 44.1667 52.4996 43.6C52.6329 43.0667 52.8329 42.5667 53.0996 42.1C53.3663 41.6333 53.6663 41.4 53.9996 41.4C54.1663 41.4 54.2496 41.5333 54.2496 41.8C54.2496 42.5333 54.3496 43.3167 54.5496 44.15C54.7496 45.0167 55.1163 45.75 55.6496 46.35C56.4496 47.2167 57.3996 47.65 58.4996 47.65C59.6663 47.65 60.9329 47.1833 62.2996 46.25C63.6663 45.35 65.0663 44.1333 66.4996 42.6C67.9663 41.1 69.3829 39.4333 70.7496 37.6C72.1496 35.7667 73.4496 33.9333 74.6496 32.1C75.8829 30.2333 76.9496 28.5167 77.8496 26.95C78.7829 25.35 79.4996 24.05 79.9996 23.05C79.5663 23.55 79.0663 24.0167 78.4996 24.45C77.9663 24.8833 77.4496 25.3 76.9496 25.7C75.1163 27.1333 73.1996 28.6 71.1996 30.1C69.2329 31.6 67.2496 32.9667 65.2496 34.2C64.9163 34.4 64.4996 34.6 63.9996 34.8C63.5329 34.9667 63.0996 35.05 62.6996 35.05C61.9996 35.05 61.6496 34.7333 61.6496 34.1C61.6496 33.8 61.6996 33.5 61.7996 33.2C61.9329 32.8667 62.0663 32.5667 62.1996 32.3C63.0663 30.5 64.0829 28.7667 65.2496 27.1C66.4163 25.4333 67.6663 23.8667 68.9996 22.4C69.0329 22.3667 69.0496 22.3167 69.0496 22.25C69.0496 22.1833 68.9829 22.1333 68.8496 22.1C68.7163 22.0667 68.6163 22.05 68.5496 22.05C68.4496 22.05 68.2663 22.0833 67.9996 22.15C67.3663 22.3167 66.7163 22.5 66.0496 22.7C65.3829 22.8667 64.7163 22.95 64.0496 22.95C63.9829 22.95 63.8996 22.9333 63.7996 22.9C63.6996 22.8667 63.6496 22.7833 63.6496 22.65C63.6496 22.5167 63.7163 22.4167 63.8496 22.35C63.9829 22.25 64.0996 22.1833 64.1996 22.15C64.8663 21.9167 65.5329 21.7167 66.1996 21.55C66.8996 21.35 67.5829 21.1333 68.2496 20.9C69.2496 20.5333 70.2329 20.1167 71.1996 19.65C72.1663 19.1833 73.1163 18.7167 74.0496 18.25C74.1163 18.2167 74.1829 18.2 74.2496 18.2C74.3163 18.1667 74.3829 18.15 74.4496 18.15C74.6829 18.15 74.7996 18.25 74.7996 18.45C74.7996 18.5833 74.7496 18.7167 74.6496 18.85C74.5829 18.95 74.4996 19.0333 74.3996 19.1C72.9663 20.3667 71.5996 21.8333 70.2996 23.5C69.0329 25.1333 67.9663 26.8167 67.0996 28.55C66.9663 28.8167 66.7996 29.1667 66.5996 29.6C66.3996 30.0333 66.2996 30.4167 66.2996 30.75C66.2996 31.0833 66.4663 31.25 66.7996 31.25C67.1996 31.25 67.8496 30.9833 68.7496 30.45C69.6496 29.9167 70.6496 29.2333 71.7496 28.4C72.8829 27.5667 73.9996 26.7 75.0996 25.8C76.1996 24.8667 77.1829 24.0333 78.0496 23.3C78.9496 22.5333 79.5829 21.9667 79.9496 21.6C80.2163 21.3333 80.5329 20.95 80.8996 20.45C81.2996 19.9167 81.4996 19.4833 81.4996 19.15C81.4996 18.9833 81.4663 18.9 81.3996 18.9C81.3329 18.8667 81.2996 18.8167 81.2996 18.75C81.2996 18.7167 81.3496 18.6833 81.4496 18.65C81.5496 18.5833 81.6163 18.5333 81.6496 18.5C81.8163 18.4 82.1496 18.2333 82.6496 18C83.1829 17.7667 83.6996 17.5667 84.1996 17.4C84.7329 17.2 85.0829 17.1 85.2496 17.1C85.3829 17.1 85.4496 17.1667 85.4496 17.3C85.4496 17.5667 85.2829 18.05 84.9496 18.75C84.6496 19.4167 84.2829 20.1667 83.8496 21C83.4163 21.8 82.9996 22.55 82.5996 23.25C82.2329 23.9167 81.9663 24.3833 81.7996 24.65C80.7996 26.4167 79.6996 28.3667 78.4996 30.5C77.2996 32.6333 75.9663 34.7667 74.4996 36.9C73.0663 39.0333 71.4829 40.9833 69.7496 42.75C68.0496 44.5167 66.1829 45.9333 64.1496 47C62.1496 48.1 59.9663 48.65 57.5996 48.65ZM82.7316 35.3C82.465 35.3 82.1983 35.25 81.9316 35.15C82.0983 34.5833 82.3316 34 82.6316 33.4C82.965 32.8 83.265 32.2333 83.5316 31.7C84.4983 29.8333 85.615 27.9833 86.8816 26.15C88.1483 24.3167 89.5483 22.6 91.0816 21C92.615 19.3667 94.2483 17.9667 95.9816 16.8C96.2816 16.6 96.7316 16.4667 97.3316 16.4C97.9316 16.3 98.5483 16.25 99.1816 16.25C99.8483 16.2167 100.348 16.2 100.682 16.2C100.882 16.2 101.398 16.2167 102.232 16.25C103.065 16.2833 103.982 16.3333 104.982 16.4C105.982 16.4667 106.848 16.55 107.582 16.65C108.348 16.7167 108.748 16.8167 108.782 16.95C108.382 17.05 107.965 17.2167 107.532 17.45C107.098 17.6833 106.748 17.9667 106.482 18.3C105.082 19.8333 103.865 21.5167 102.832 23.35C101.798 25.15 100.848 26.9833 99.9816 28.85C99.8816 29.0833 99.765 29.3333 99.6316 29.6C99.5316 29.8667 99.4816 30.1333 99.4816 30.4C99.4816 30.6 99.5316 30.7 99.6316 30.7C99.6983 30.7 99.7816 30.6667 99.8816 30.6C99.9816 30.5333 100.048 30.4833 100.082 30.45C101.248 29.45 102.598 28.4333 104.132 27.4C105.698 26.3333 107.198 25.5333 108.632 25C108.665 24.9667 108.815 24.9 109.082 24.8C109.348 24.7 109.498 24.65 109.532 24.65C109.632 24.65 109.698 24.7 109.732 24.8C109.765 24.8667 109.798 24.9333 109.832 25C109.065 25.3333 108.182 25.8167 107.182 26.45C106.182 27.05 105.165 27.7333 104.132 28.5C103.132 29.2333 102.198 30 101.332 30.8C100.498 31.5667 99.8316 32.2833 99.3316 32.95C99.1983 33.15 99.0816 33.35 98.9816 33.55C98.8816 33.75 98.765 33.9667 98.6316 34.2C98.4316 34.6 98.1316 34.85 97.7316 34.95C97.3316 35.05 96.915 35.1 96.4816 35.1C96.3483 35.1 96.0483 35.0667 95.5816 35C95.115 34.9667 94.665 34.9 94.2316 34.8C93.8316 34.6667 93.6316 34.5167 93.6316 34.35C93.6316 34.1167 93.8316 33.6333 94.2316 32.9C94.665 32.1333 95.215 31.25 95.8816 30.25C96.5483 29.25 97.215 28.25 97.8816 27.25C98.5816 26.2167 99.215 25.3167 99.7816 24.55C100.348 23.75 100.748 23.2 100.982 22.9C99.915 23.9 98.7816 24.85 97.5816 25.75C96.415 26.65 95.2483 27.55 94.0816 28.45C92.815 29.45 91.515 30.45 90.1816 31.45C88.8483 32.4167 87.4816 33.3333 86.0816 34.2C85.5816 34.5 85.0483 34.7667 84.4816 35C83.915 35.2 83.3316 35.3 82.7316 35.3ZM87.4816 31.55C87.6816 31.55 87.915 31.4667 88.1816 31.3C88.4816 31.1333 88.715 31 88.8816 30.9C90.1816 30.1 91.5316 29.1833 92.9316 28.15C94.365 27.0833 95.765 25.9833 97.1316 24.85C98.4983 23.7167 99.715 22.6333 100.782 21.6C101.048 21.3333 101.365 20.9833 101.732 20.55C102.098 20.1167 102.282 19.6833 102.282 19.25C102.282 18.7833 102.015 18.45 101.482 18.25C100.948 18.05 100.348 17.9333 99.6816 17.9C99.0483 17.8667 98.565 17.85 98.2316 17.85C98.0316 17.85 97.7816 17.8667 97.4816 17.9C97.1816 17.9 96.9483 17.9667 96.7816 18.1C96.015 18.6667 95.1983 19.4167 94.3316 20.35C93.465 21.2833 92.5983 22.3167 91.7316 23.45C90.8983 24.55 90.1316 25.65 89.4316 26.75C88.765 27.85 88.215 28.8333 87.7816 29.7C87.6816 29.8667 87.5483 30.1167 87.3816 30.45C87.2483 30.75 87.1816 31.0167 87.1816 31.25C87.1816 31.45 87.2816 31.55 87.4816 31.55Z" fill="white"/>
</svg>
